<mxfile host="app.diagrams.net">
  <diagram name="GPT Investigate Mindmap">
    <mxGraphModel dx="1420" dy="800" grid="1" gridSize="10" guides="1" tooltips="1" connect="1" arrows="1" fold="1" page="1" pageScale="1" pageWidth="827" pageHeight="1169" math="0" shadow="0">
      <root>
        <mxCell id="0"/>
        <mxCell id="1" parent="0"/>
        <mxCell id="2" value="GPT Investigate Application" style="ellipse;whiteSpace=wrap;html=1;fillColor=#d5e8d4" vertex="1" parent="1">
          <mxGeometry x="300" y="50" width="200" height="60" as="geometry"/>
        </mxCell>

        <!-- Current Workflow -->
        <mxCell id="3" value="Current Workflow" style="rounded=1;whiteSpace=wrap;html=1;fillColor=#dae8fc" vertex="1" parent="1">
          <mxGeometry x="50" y="200" width="180" height="50" as="geometry"/>
        </mxCell>
        <mxCell id="4" value="main.py (Entry Point)" style="whiteSpace=wrap;html=1;" vertex="1" parent="1">
          <mxGeometry x="300" y="200" width="160" height="40" as="geometry"/>
        </mxCell>
        <mxCell id="5" value="Pipelines: dfmea, end-to-end, vector" style="whiteSpace=wrap;html=1;" vertex="1" parent="1">
          <mxGeometry x="300" y="250" width="220" height="40" as="geometry"/>
        </mxCell>
        <mxCell id="6" value="Agents: Chunking, Embedding, Vector Store, Context, Extraction, Writer" style="whiteSpace=wrap;html=1;" vertex="1" parent="1">
          <mxGeometry x="300" y="300" width="280" height="60" as="geometry"/>
        </mxCell>
        <mxCell id="7" value="Utilities: Azure OpenAI Client, Excel Parser" style="whiteSpace=wrap;html=1;" vertex="1" parent="1">
          <mxGeometry x="300" y="370" width="260" height="40" as="geometry"/>
        </mxCell>
        <mxCell id="8" value="Output: JSON / Excel / Markdown" style="whiteSpace=wrap;html=1;" vertex="1" parent="1">
          <mxGeometry x="300" y="420" width="220" height="40" as="geometry"/>
        </mxCell>

        <!-- Limitation -->
        <mxCell id="9" value="Limitation: DFMEA Only" style="rhombus;whiteSpace=wrap;html=1;fillColor=#f8cecc" vertex="1" parent="1">
          <mxGeometry x="650" y="250" width="180" height="50" as="geometry"/>
        </mxCell>

        <!-- Extension Needed -->
        <mxCell id="10" value="Extension Needed" style="rounded=1;whiteSpace=wrap;html=1;fillColor=#fff2cc" vertex="1" parent="1">
          <mxGeometry x="950" y="200" width="180" height="50" as="geometry"/>
        </mxCell>
        <mxCell id="11" value="Multiple Components" style="whiteSpace=wrap;html=1;" vertex="1" parent="1">
          <mxGeometry x="950" y="270" width="200" height="40" as="geometry"/>
        </mxCell>
        <mxCell id="12" value="Component-specific Prompts" style="whiteSpace=wrap;html=1;" vertex="1" parent="1">
          <mxGeometry x="1200" y="320" width="200" height="40" as="geometry"/>
        </mxCell>
        <mxCell id="13" value="Schema Registry per Component" style="whiteSpace=wrap;html=1;" vertex="1" parent="1">
          <mxGeometry x="1200" y="370" width="220" height="40" as="geometry"/>
        </mxCell>
        <mxCell id="14" value="Adaptive Writer Agent" style="whiteSpace=wrap;html=1;" vertex="1" parent="1">
          <mxGeometry x="1200" y="420" width="200" height="40" as="geometry"/>
        </mxCell>
        <mxCell id="15" value="Vector Store with Tags" style="whiteSpace=wrap;html=1;" vertex="1" parent="1">
          <mxGeometry x="1200" y="470" width="200" height="40" as="geometry"/>
        </mxCell>

        <!-- Edges -->
        <mxCell id="16" edge="1" parent="1" source="2" target="3"><mxGeometry relative="1" as="geometry"/></mxCell>
        <mxCell id="17" edge="1" parent="1" source="3" target="4"><mxGeometry relative="1" as="geometry"/></mxCell>
        <mxCell id="18" edge="1" parent="1" source="3" target="5"><mxGeometry relative="1" as="geometry"/></mxCell>
        <mxCell id="19" edge="1" parent="1" source="3" target="6"><mxGeometry relative="1" as="geometry"/></mxCell>
        <mxCell id="20" edge="1" parent="1" source="3" target="7"><mxGeometry relative="1" as="geometry"/></mxCell>
        <mxCell id="21" edge="1" parent="1" source="3" target="8"><mxGeometry relative="1" as="geometry"/></mxCell>
        <mxCell id="22" edge="1" parent="1" source="8" target="9"><mxGeometry relative="1" as="geometry"/></mxCell>
        <mxCell id="23" edge="1" parent="1" source="9" target="10"><mxGeometry relative="1" as="geometry"/></mxCell>
        <mxCell id="24" edge="1" parent="1" source="10" target="11"><mxGeometry relative="1" as="geometry"/></mxCell>
        <mxCell id="25" edge="1" parent="1" source="11" target="12"><mxGeometry relative="1" as="geometry"/></mxCell>
        <mxCell id="26" edge="1" parent="1" source="11" target="13"><mxGeometry relative="1" as="geometry"/></mxCell>
        <mxCell id="27" edge="1" parent="1" source="11" target="14"><mxGeometry relative="1" as="geometry"/></mxCell>
        <mxCell id="28" edge="1" parent="1" source="11" target="15"><mxGeometry relative="1" as="geometry"/></mxCell>

      </root>
    </mxGraphModel>
  </diagram>
</mxfile>
